# Blender v2.79 (sub 0) OBJ File: 'lightbulb.blend'
# www.blender.org
mtllib lightbulb.mtl
o Cube_Cube.001
v -0.090792 -0.215604 0.104138
v -0.189378 0.028225 0.168655
v -0.090792 -0.215604 -0.111933
v -0.204877 0.028225 -0.184232
v 0.125279 -0.215604 0.104138
v 0.125279 0.028225 0.104138
v 0.125279 -0.215604 -0.111933
v 0.125279 0.028225 -0.111933
v -0.096461 0.148564 0.106169
v -0.096461 0.148564 -0.113964
v 0.261080 0.237336 -0.104889
v 0.261080 0.237336 0.099364
v 0.113379 -0.960365 0.035476
vt 0.111709 0.297733
vt 0.437639 0.412622
vt 0.192429 0.412901
vt 0.630553 0.748773
vt 0.493226 0.660808
vt 0.250630 0.646585
vt 0.110747 0.746505
vt 0.983539 0.373625
vt 0.761980 0.244129
vt 0.878354 0.241949
vt 0.878254 0.086131
vt 0.958736 0.003196
vt 0.752367 0.081899
vt 0.657379 0.021367
vt 0.646229 0.384838
vt 0.481369 0.303935
vn -0.9271 -0.3748 0.0000
vn 0.0000 0.0000 -1.0000
vn 1.0000 0.0000 0.0000
vn 0.0000 0.0000 1.0000
vn 0.0000 -1.0000 0.0000
vn 0.8387 -0.5446 0.0000
vn -0.2410 0.9705 0.0000
vn -0.7521 0.6583 0.0330
vn 0.1894 0.3334 0.9236
vn 0.0203 0.0205 -0.9996
vn -0.9095 -0.4137 0.0399
vn 0.2102 -0.1862 -0.9598
vn 0.1978 -0.1752 0.9645
vn -0.7915 0.6111 0.0000
vn 0.0159 0.0125 0.9998
vn 0.2001 0.3533 -0.9138
usemtl lightbulb
s off
f 2/1/1 3/2/1 1/3/1
f 3/2/2 8/4/2 7/5/2
f 8/4/3 5/6/3 7/5/3
f 6/7/4 1/3/4 5/6/4
f 7/5/5 1/3/5 3/2/5
f 6/8/6 11/9/6 12/10/6
f 11/9/7 9/11/7 12/10/7
f 2/12/8 10/13/8 4/14/8
f 6/8/9 9/11/9 2/12/9
f 8/15/10 10/13/10 11/9/10
f 2/1/11 4/16/11 3/2/11
f 3/2/12 4/16/12 8/4/12
f 8/4/3 6/7/3 5/6/3
f 6/7/13 2/1/13 1/3/13
f 7/5/5 5/6/5 1/3/5
f 6/8/6 8/15/6 11/9/6
f 11/9/7 10/13/7 9/11/7
f 2/12/14 9/11/14 10/13/14
f 6/8/15 12/10/15 9/11/15
f 8/15/16 4/14/16 10/13/16
